<svg xmlns="http://www.w3.org/2000/svg" style="width:0; height:0; visibility:hidden; display:none">
<symbol id="ico-access" viewBox="0 0 24 24"><g id="ico/" stroke="none" stroke-width="1" fill-rule="evenodd"> <g id="ico/access/24" fill-rule="nonzero"> <path d="M22,18 L22,22 L18,22 L18,19 L15,19 L15,16 L12,16 L9.74,13.74 C9.19,13.91 8.61,14 8,14 C4.6862915,14 2,11.3137085 2,8 C2,4.6862915 4.6862915,2 8,2 C11.3137085,2 14,4.6862915 14,8 C14,8.61 13.91,9.19 13.74,9.74 L22,18 L22,18 Z M7,5 C5.8954305,5 5,5.8954305 5,7 C5,8.1045695 5.8954305,9 7,9 C8.1045695,9 9,8.1045695 9,7 C9,5.8954305 8.1045695,5 7,5 Z" id="Shape"/> </g> </g></symbol>
<symbol id="ico-add" viewBox="0 0 24 24"><g id="ico/" stroke="none" stroke-width="1" fill-rule="evenodd"> <g id="ico/add/24"> <rect id="Rectangle" x="11" y="2" width="2" height="19"/> <rect id="Rectangle" x="2" y="11" width="20" height="2"/> </g> </g></symbol>
<symbol id="ico-alerts-ot" viewBox="0 0 24 24"><g id="ico/" stroke="none" stroke-width="1" fill-rule="evenodd"> <g id="ico/alerts-ot/24" fill-rule="nonzero"> <path d="M17,17 L8,17 L8,10.5 C8,8 10,6 12.5,6 C15,6 17,8 17,10.5 L17,17 Z M19,16 L19,10.5 C19,7.43 16.86,4.86 14,4.18 L14,3.5 C14,2.67157288 13.3284271,2 12.5,2 C11.6715729,2 11,2.67157288 11,3.5 L11,4.18 C8.13,4.86 6,7.43 6,10.5 L6,16 L4,18 L4,19 L21,19 L21,18 L19,16 Z M12.5,22 C13.6045695,22 14.5,21.1045695 14.5,20 L10.5,20 C10.5,21.1045695 11.3954305,22 12.5,22 Z" id="Shape"/> </g> </g></symbol>
<symbol id="ico-arrow-down" viewBox="0 0 24 24"><g id="ico/" stroke="none" stroke-width="1" fill-rule="evenodd"> <g id="ico/arrow-down/24"> <polygon id="Shape" transform="translate(12.469003, 16.000000) scale(-1, 1) translate(-12.469003, -16.000000) " points="7.52021563 12 12.4690027 16.9487871 17.4177898 12 18.9380054 13.5309973 12.4690027 20 6 13.5309973"/> <rect id="Rectangle-2" x="11.5" y="3" width="2" height="14"/> </g> </g></symbol>
<symbol id="ico-chevron-down" viewBox="0 0 24 24"><g id="ico/" stroke="none" stroke-width="1" fill-rule="evenodd"> <g id="ico/chevron-down/24"> <polygon id="Shape" points="5.115 6 12 12.885 18.885 6 21 8.13 12 17.13 3 8.13"/> </g> </g></symbol>
<symbol id="ico-chevron-left" viewBox="0 0 24 24"><g id="ico/" stroke="none" stroke-width="1" fill-rule="evenodd"> <g id="ico/chevron-left/24"> <polygon id="Shape" transform="translate(12.000000, 11.565000) scale(1, -1) rotate(90.000000) translate(-12.000000, -11.565000) " points="5.115 6 12 12.885 18.885 6 21 8.13 12 17.13 3 8.13"/> </g> </g></symbol>
<symbol id="ico-chevron-right" viewBox="0 0 24 24"><g id="ico/" stroke="none" stroke-width="1" fill-rule="evenodd"> <g id="ico/chevron-right/24"> <polygon id="Shape" transform="translate(12.000000, 11.565000) scale(-1, 1) rotate(90.000000) translate(-12.000000, -11.565000) " points="5.115 6 12 12.885 18.885 6 21 8.13 12 17.13 3 8.13"/> </g> </g></symbol>
<symbol id="ico-chevron-up" viewBox="0 0 24 24"><g id="ico/" stroke="none" stroke-width="1" fill-rule="evenodd"> <g id="ico/chevron-up/24"> <polygon id="Shape" transform="translate(12.000000, 11.565000) scale(1, -1) translate(-12.000000, -11.565000) " points="5.115 6 12 12.885 18.885 6 21 8.13 12 17.13 3 8.13"/> </g> </g></symbol>
<symbol id="ico-dashboard" viewBox="0 0 24 24"><g id="ico/" stroke="none" stroke-width="1" fill-rule="evenodd"> <g id="ico/dashboard/24" fill-rule="nonzero"> <path d="M13,3 L13,9 L21,9 L21,3 L13,3 Z M13,21 L21,21 L21,11 L13,11 L13,21 Z M3,21 L11,21 L11,15 L3,15 L3,21 Z M3,13 L11,13 L11,3 L3,3 L3,13 Z" id="Shape"/> </g> </g></symbol>
<symbol id="ico-folder" viewBox="0 0 24 24"><g id="ico/" stroke="none" stroke-width="1" fill-rule="evenodd"> <g id="ico/folder/24" fill-rule="nonzero"> <path d="M10,4 L4,4 C2.89,4 2,4.89 2,6 L2,18 C2,19.1045695 2.8954305,20 4,20 L20,20 C21.1045695,20 22,19.1045695 22,18 L22,8 C22,6.89 21.1,6 20,6 L12,6 L10,4 Z" id="Shape"/> </g> </g></symbol>
<symbol id="ico-home" viewBox="0 0 24 24"><g id="ico/" stroke="none" stroke-width="1" fill-rule="evenodd"> <g id="ico/home/24" fill-rule="nonzero"> <polygon id="Shape" points="10 20 10 14 14 14 14 20 19 20 19 12 22 12 12 3 2 12 5 12 5 20"/> </g> </g></symbol>
<symbol id="ico-postr" viewBox="0 0 24 24"><g id="ico/" stroke="none" stroke-width="1" fill-rule="evenodd"> <g id="ico/postr/24" fill-rule="nonzero"> <path d="M3.81818182,5.63636364 L3.81818182,20.1818182 L20.1818182,20.1818182 L20.1818182,22 L3.81818182,22 C2.81402773,22 2,21.1859723 2,20.1818182 L2,5.63636364 L3.81818182,5.63636364 L3.81818182,5.63636364 Z M15.6363636,8.36363636 L20.6363636,8.36363636 L15.6363636,3.36363636 L15.6363636,8.36363636 L15.6363636,8.36363636 Z M7.45454545,2 L16.5454545,2 L22,7.45454545 L22,16.5454545 C22,17.5496086 21.1859723,18.3636364 20.1818182,18.3636364 L7.45454545,18.3636364 C6.44545455,18.3636364 5.63636364,17.5454545 5.63636364,16.5454545 L5.63636364,3.81818182 C5.63636364,2.81402773 6.45039136,2 7.45454545,2 L7.45454545,2 Z M7.45454545,3.81818182 L7.45454545,16.5454545 L20.1818182,16.5454545 L20.1818182,10.1818182 L13.8181818,10.1818182 L13.8181818,3.81818182 L7.45454545,3.81818182 Z" id="Shape"/> </g> </g></symbol>
<symbol id="ico-reports" viewBox="0 0 24 24"><g id="ico/" stroke="none" stroke-width="1" fill-rule="evenodd"> <g id="ico/reports/24" fill-rule="nonzero"> <path d="M13,9 L18.5,9 L13,3.5 L13,9 L13,9 Z M6,2 L14,2 L20,8 L20,20 C20,21.1045695 19.1045695,22 18,22 L6,22 C4.89,22 4,21.1 4,20 L4,4 C4,2.89 4.89,2 6,2 L6,2 Z M7,20 L9,20 L9,14 L7,14 L7,20 L7,20 Z M11,20 L13,20 L13,12 L11,12 L11,20 L11,20 Z M15,20 L17,20 L17,16 L15,16 L15,20 Z" id="Shape"/> </g> </g></symbol>
<symbol id="ico-search" viewBox="0 0 24 24"><g id="ico/" stroke="none" stroke-width="1" fill-rule="evenodd"> <g id="ico/search/24"> <path d="M15.5029488,14.1817692 L14.8217156,14.1817692 L14.5739944,13.9546915 C15.0006274,13.4454843 15.3378001,12.8743551 15.5855225,12.2412867 C15.8332449,11.6082183 15.9571043,10.9338729 15.9571043,10.2182304 C15.9571043,9.43377612 15.8057206,8.69406057 15.5029488,7.99906158 C15.200177,7.30406259 14.790753,6.698528 14.2746646,6.18243964 C13.7585763,5.66635128 13.1530417,5.25692732 12.4580427,4.95415548 C11.7630437,4.65138365 11.0164471,4.5 10.2182304,4.5 C9.43377612,4.5 8.69406057,4.65138365 7.99906158,4.95415548 C7.30406259,5.25692732 6.698528,5.66635128 6.18243964,6.18243964 C5.66635128,6.698528 5.25692732,7.30406259 4.95415548,7.99906158 C4.65138365,8.69406057 4.5,9.43377612 4.5,10.2182304 C4.5,11.0164471 4.65138365,11.7630437 4.95415548,12.4580427 C5.25692732,13.1530417 5.66635128,13.7585763 6.18243964,14.2746646 C6.698528,14.790753 7.30406259,15.200177 7.99906158,15.5029488 C8.69406057,15.8057206 9.43377612,15.9571043 10.2182304,15.9571043 C10.9338729,15.9571043 11.6082183,15.8332449 12.2412867,15.5855225 C12.8743551,15.3378001 13.4454843,15.0006274 13.9546915,14.5739944 L14.1817692,14.8217156 L14.1817692,15.5029488 L18.5994635,19.8999996 L19.8999996,18.5994635 L15.5029488,14.1817692 Z M10.2182304,14.1817692 C9.13100428,14.1817692 8.19861863,13.796429 7.4210455,13.0257371 C6.64347238,12.2550451 6.25469165,11.3192189 6.25469165,10.2182304 C6.25469165,9.13100428 6.64347238,8.19861863 7.4210455,7.4210455 C8.19861863,6.64347238 9.13100428,6.25469165 10.2182304,6.25469165 C11.3192189,6.25469165 12.2550451,6.64347238 13.0257371,7.4210455 C13.796429,8.19861863 14.1817692,9.13100428 14.1817692,10.2182304 C14.1817692,11.3192189 13.796429,12.2550451 13.0257371,13.0257371 C12.2550451,13.796429 11.3192189,14.1817692 10.2182304,14.1817692 L10.2182304,14.1817692 Z" id="Shape"/> </g> </g></symbol>
<symbol id="ico-settings" viewBox="0 0 24 24"><g id="ico/" stroke="none" stroke-width="1" fill-rule="evenodd"> <g id="ico/settings/24" fill-rule="nonzero"> <path d="M11.7293316,15.5 C9.79633498,15.5 8.2293316,13.9329966 8.2293316,12 C8.2293316,10.0670034 9.79633498,8.5 11.7293316,8.5 C13.6623282,8.5 15.2293316,10.0670034 15.2293316,12 C15.2293316,13.9329966 13.6623282,15.5 11.7293316,15.5 L11.7293316,15.5 Z M19.1593316,12.97 C19.1993316,12.65 19.2293316,12.33 19.2293316,12 C19.2293316,11.67 19.1993316,11.34 19.1593316,11 L21.2693316,9.37 C21.4593316,9.22 21.5093316,8.95 21.3893316,8.73 L19.3893316,5.27 C19.2693316,5.05 18.9993316,4.96 18.7793316,5.05 L16.2893316,6.05 C15.7693316,5.66 15.2293316,5.32 14.5993316,5.07 L14.2293316,2.42 C14.1893316,2.18 13.9793316,2 13.7293316,2 L9.7293316,2 C9.4793316,2 9.2693316,2.18 9.2293316,2.42 L8.8593316,5.07 C8.2293316,5.32 7.6893316,5.66 7.1693316,6.05 L4.6793316,5.05 C4.4593316,4.96 4.1893316,5.05 4.0693316,5.27 L2.0693316,8.73 C1.9393316,8.95 1.9993316,9.22 2.1893316,9.37 L4.2993316,11 C4.2593316,11.34 4.2293316,11.67 4.2293316,12 C4.2293316,12.33 4.2593316,12.65 4.2993316,12.97 L2.1893316,14.63 C1.9993316,14.78 1.9393316,15.05 2.0693316,15.27 L4.0693316,18.73 C4.1893316,18.95 4.4593316,19.03 4.6793316,18.95 L7.1693316,17.94 C7.6893316,18.34 8.2293316,18.68 8.8593316,18.93 L9.2293316,21.58 C9.2693316,21.82 9.4793316,22 9.7293316,22 L13.7293316,22 C13.9793316,22 14.1893316,21.82 14.2293316,21.58 L14.5993316,18.93 C15.2293316,18.67 15.7693316,18.34 16.2893316,17.94 L18.7793316,18.95 C18.9993316,19.03 19.2693316,18.95 19.3893316,18.73 L21.3893316,15.27 C21.5093316,15.05 21.4593316,14.78 21.2693316,14.63 L19.1593316,12.97 Z" id="Shape"/> </g> </g></symbol>
<symbol id="ico-todo" viewBox="0 0 24 24"><g id="ico/" stroke="none" stroke-width="1" fill-rule="evenodd"> <g id="ico/todo/24" fill-rule="nonzero"> <path d="M19,19 L5,19 L5,5 L15,5 L15,3 L5,3 C3.89,3 3,3.89 3,5 L3,19 C3,20.1045695 3.8954305,21 5,21 L19,21 C20.1045695,21 21,20.1045695 21,19 L21,11 L19,11 L19,19 Z M7.91,10.08 L6.5,11.5 L11,16 L21,6 L19.59,4.58 L11,13.17 L7.91,10.08 Z" id="Shape"/> </g> </g></symbol>
<symbol id="ico-user-ot" viewBox="0 0 24 24"><g id="ico/" stroke="none" stroke-width="1" fill-rule="evenodd"> <g id="ico/user-ot/24" fill-rule="nonzero"> <path d="M12,13 C9.33,13 4,14.33 4,17 L4,20 L20,20 L20,17 C20,14.33 14.67,13 12,13 L12,13 Z M12,4 C9.790861,4 8,5.790861 8,8 C8,10.209139 9.790861,12 12,12 C14.209139,12 16,10.209139 16,8 C16,5.790861 14.209139,4 12,4 L12,4 Z M12,14.9 C14.97,14.9 18.1,16.36 18.1,17 L18.1,18.1 L5.9,18.1 L5.9,17 C5.9,16.36 9,14.9 12,14.9 L12,14.9 Z M12,5.9 C13.159798,5.9 14.1,6.84020203 14.1,8 C14.1,9.15979797 13.159798,10.1 12,10.1 C10.840202,10.1 9.9,9.15979797 9.9,8 C9.9,6.84020203 10.840202,5.9 12,5.9 L12,5.9 Z" id="Shape"/> </g> </g></symbol>
<symbol id="ico-user" viewBox="0 0 24 24"><g id="ico/" stroke="none" stroke-width="1" fill-rule="evenodd"> <g id="ico/user/24"> <path d="M12,4 C14.209139,4 16,5.790861 16,8 C16,10.209139 14.209139,12 12,12 C9.790861,12 8,10.209139 8,8 C8,5.790861 9.790861,4 12,4 L12,4 Z M12,14 C16.42,14 20,15.79 20,18 L20,20 L4,20 L4,18 C4,15.79 7.58,14 12,14 L12,14 Z" id="Shape"/> </g> </g></symbol>
<symbol id="ico-users" viewBox="0 0 24 24"><g id="ico/" stroke="none" stroke-width="1" fill-rule="evenodd"> <g id="ico/users/24" fill-rule="nonzero"> <path d="M16,13.1714286 C15.71,13.1714286 15.38,13.1714286 15.03,13.2225 C16.19,14.0805 17,15.2142857 17,16.7464286 L17,19.3 L23,19.3 L23,16.7464286 C23,14.3665 18.33,13.1714286 16,13.1714286 L16,13.1714286 Z M8,13.1714286 C5.67,13.1714286 1,14.3665 1,16.7464286 L1,19.3 L15,19.3 L15,16.7464286 C15,14.3665 10.33,13.1714286 8,13.1714286 L8,13.1714286 Z M8,11.1285714 C9.65685425,11.1285714 11,9.75664398 11,8.06428571 C11,6.37192745 9.65685425,5 8,5 C6.34314575,5 5,6.37192745 5,8.06428571 C5,9.75664398 6.34314575,11.1285714 8,11.1285714 L8,11.1285714 Z M16,11.1285714 C17.6568542,11.1285714 19,9.75664398 19,8.06428571 C19,6.37192745 17.6568542,5 16,5 C14.3431458,5 13,6.37192745 13,8.06428571 C13,9.75664398 14.3431458,11.1285714 16,11.1285714 Z" id="Shape"/> </g> </g></symbol>
</svg>